<svg width="19" height="25" viewBox="0 0 19 25" fill="none" xmlns="http://www.w3.org/2000/svg">
<path d="M18.8216 14.6372C18.5352 10.9087 16.7993 8.57221 15.2678 6.5104C13.8498 4.60161 12.625 2.95327 12.625 0.521725C12.625 0.326413 12.5156 0.147897 12.3422 0.0583953C12.1682 -0.0316437 11.9592 -0.0168976 11.801 0.0980438C9.50103 1.74384 7.58198 4.51772 6.91162 7.1644C6.44624 9.00703 6.38467 11.0785 6.37603 12.4466C4.252 11.993 3.77085 8.81582 3.76577 8.7812C3.74185 8.6164 3.64116 8.47299 3.49468 8.39468C3.34668 8.31738 3.17271 8.31176 3.02266 8.38603C2.91128 8.43994 0.288769 9.77246 0.136181 15.0928C0.125488 15.2698 0.125 15.4474 0.125 15.6249C0.125 20.7936 4.33081 24.9992 9.5 24.9992C9.50713 24.9997 9.51475 25.0007 9.52085 24.9992C9.5229 24.9992 9.5249 24.9992 9.52744 24.9992C14.6839 24.9844 18.875 20.7845 18.875 15.6249C18.875 15.3649 18.8216 14.6372 18.8216 14.6372ZM9.5 23.9576C7.77676 23.9576 6.375 22.4644 6.375 20.6289C6.375 20.5664 6.37451 20.5033 6.37905 20.426C6.3999 19.6519 6.54692 19.1235 6.70815 18.772C7.0103 19.421 7.55044 20.0176 8.42783 20.0176C8.71572 20.0176 8.94868 19.7846 8.94868 19.4968C8.94868 18.7553 8.96396 17.8998 9.14858 17.1277C9.31289 16.4432 9.70552 15.7148 10.203 15.131C10.4242 15.8888 10.8556 16.5021 11.2767 17.1008C11.8794 17.9572 12.5025 18.8427 12.6119 20.3527C12.6185 20.4422 12.6251 20.5323 12.6251 20.6289C12.625 22.4644 11.2232 23.9576 9.5 23.9576Z" fill="white"/>
</svg>
